<?xml version="1.0" standalone="no"?>
<!DOCTYPE svg PUBLIC "-//W3C//DTD SVG 20010904//EN"
 "http://www.w3.org/TR/2001/REC-SVG-20010904/DTD/svg10.dtd">
<svg version="1.0" xmlns="http://www.w3.org/2000/svg"
 width="800.000000pt" height="800.000000pt" viewBox="0 0 800.000000 800.000000"
 preserveAspectRatio="xMidYMid meet">
<metadata>
Created by potrace 1.14, written by Peter Selinger 2001-2017
</metadata>
<g transform="translate(0.000000,800.000000) scale(0.100000,-0.100000)"
fill="#000000" stroke="none">
<path d="M2866 7533 c-1 -1 -42 -3 -91 -4 -90 -2 -173 -11 -290 -34 -43 -8
-213 -59 -255 -77 -66 -27 -90 -38 -158 -72 -464 -231 -821 -705 -908 -1206
-2 -14 -6 -34 -9 -45 -17 -79 -20 -364 -20 -2090 1 -1712 4 -2079 21 -2106 2
-4 6 -24 10 -45 17 -118 70 -277 140 -421 165 -343 442 -623 779 -788 157 -77
322 -131 460 -150 22 -4 46 -8 54 -11 42 -14 313 -17 1401 -17 1092 0 1311 3
1405 18 95 16 193 39 261 61 666 211 1133 798 1191 1499 10 116 10 3890 0
3970 -4 33 -9 67 -12 75 -2 8 -6 33 -10 55 -25 169 -120 410 -238 600 -34 55
-115 159 -179 230 -231 256 -579 457 -898 519 -14 2 -47 9 -75 15 -27 5 -88
13 -135 17 -70 6 -2438 13 -2444 7z m2424 -407 c163 -17 288 -54 445 -131 315
-153 566 -443 669 -773 64 -204 62 -136 61 -2237 -1 -1050 -5 -1932 -9 -1960
-37 -249 -124 -462 -263 -645 -44 -58 -167 -184 -212 -218 -20 -15 -38 -30
-41 -33 -16 -19 -148 -98 -225 -134 -84 -40 -196 -80 -255 -91 -14 -3 -43 -9
-65 -14 -22 -5 -69 -12 -105 -16 -85 -9 -2495 -9 -2580 0 -519 56 -949 404
-1111 899 -67 206 -65 125 -64 2257 1 1059 5 1943 9 1965 54 289 137 475 295
665 83 100 220 218 326 283 102 62 298 139 410 161 17 4 41 9 55 11 14 3 59 8
100 12 41 3 76 6 77 7 7 5 2433 -3 2483 -8z"/>
<path d="M3296 6578 c-208 -30 -284 -295 -124 -432 75 -64 51 -63 838 -61 630
1 719 3 751 17 198 88 205 360 12 454 l-55 27 -688 1 c-377 1 -708 -2 -734 -6z"/>
<path d="M3208 5492 c-30 -3 -39 -8 -43 -25 -4 -19 -26 -136 -40 -207 -3 -14
-12 -59 -20 -100 -8 -41 -17 -84 -19 -95 -2 -11 -13 -65 -25 -120 -11 -55 -23
-115 -26 -134 -3 -19 -20 -98 -36 -175 -17 -78 -32 -152 -34 -166 -2 -14 -29
-151 -60 -305 -31 -154 -59 -289 -61 -300 -4 -22 -11 -55 -19 -95 -2 -14 -25
-124 -49 -245 -25 -121 -47 -233 -50 -250 -4 -23 -65 -323 -132 -650 -2 -10
-6 -35 -9 -55 -3 -19 -12 -61 -19 -93 l-13 -57 310 2 310 3 29 145 c15 80 30
156 33 170 8 40 14 72 25 126 6 28 13 64 16 80 3 16 9 45 14 64 5 19 11 51 14
70 3 19 8 46 11 60 21 103 94 474 99 500 18 97 26 141 30 180 4 25 8 54 10 66
2 12 7 45 11 75 3 30 8 65 10 79 2 14 6 52 9 85 4 33 8 76 11 95 2 19 7 62 10
95 3 33 10 96 15 140 5 44 12 116 16 160 3 44 8 82 9 84 9 9 23 -13 30 -46 3
-21 17 -83 30 -138 13 -55 26 -111 29 -125 2 -14 14 -68 26 -120 12 -52 26
-115 31 -139 13 -67 27 -117 64 -231 18 -58 56 -179 85 -270 28 -91 69 -219
90 -285 21 -66 59 -187 85 -270 26 -82 55 -175 65 -205 10 -30 37 -116 60
-190 23 -74 50 -163 62 -198 l20 -62 311 2 312 3 12 60 c7 33 14 74 17 90 3
17 12 63 20 102 9 40 18 87 21 105 3 18 10 49 15 68 5 19 11 51 14 70 3 19 17
91 31 160 34 166 31 154 49 245 9 44 18 89 20 100 6 27 57 283 63 315 2 14 35
180 73 370 38 190 71 356 74 370 2 14 11 57 19 95 9 39 18 84 20 100 3 17 24
122 47 235 23 113 44 216 46 230 3 14 19 98 38 188 l33 162 -26 1 c-90 2 -583
0 -586 -3 -2 -2 -138 -663 -171 -833 -2 -11 -6 -31 -9 -45 -6 -29 -13 -65 -20
-100 -2 -14 -13 -68 -24 -120 -11 -52 -23 -111 -26 -130 -3 -19 -8 -42 -10
-50 -2 -8 -7 -37 -10 -65 -4 -27 -9 -66 -12 -85 -5 -39 -8 -59 -17 -140 -15
-129 -18 -160 -31 -325 -4 -44 -8 -96 -10 -115 -2 -19 -7 -71 -11 -115 -6 -74
-11 -118 -13 -138 -2 -17 -24 0 -27 20 -2 11 -26 112 -54 224 -29 112 -54 215
-56 229 -14 69 -80 300 -147 515 -42 132 -121 386 -177 565 -56 179 -124 397
-152 485 -27 88 -54 175 -59 193 -6 17 -15 32 -22 33 -49 2 -550 3 -579 1z"/>
<path d="M3458 2104 c-14 -22 -53 -78 -87 -126 -46 -68 -56 -88 -43 -89 93 -3
158 -25 203 -67 38 -35 44 -52 40 -109 -2 -31 -56 -81 -118 -109 -73 -32 -243
-62 -359 -64 l-32 0 4 -132 c1 -73 3 -136 3 -140 1 -9 189 2 286 17 353 55
579 161 673 314 70 114 74 259 13 363 -56 93 -229 158 -464 174 l-93 7 -26
-39z"/>
</g>
</svg>
